<?xml version="1.0" encoding="UTF-8" standalone="no"?>
<!DOCTYPE svg PUBLIC "-//W3C//DTD SVG 1.1//EN"
 "http://www.w3.org/Graphics/SVG/1.1/DTD/svg11.dtd">
<!-- Generated by graphviz version 2.43.0 (0)
 -->
<!-- Title: %3 Pages: 1 -->
<svg width="605pt" height="165pt"
 viewBox="0.00 0.00 605.00 164.74" xmlns="http://www.w3.org/2000/svg" xmlns:xlink="http://www.w3.org/1999/xlink">
<g id="graph0" class="graph" transform="scale(1 1) rotate(0) translate(36 128.74)">
<title>%3</title>
<polygon fill="dimgray" stroke="transparent" points="-36,36 -36,-128.74 569,-128.74 569,36 -36,36"/>
<text text-anchor="middle" x="266.5" y="-77.54" font-family="Helvetica,sans-Serif" font-size="14.00">Sweep&#39;s Plan &amp; Progress</text>
<!-- start -->
<g id="node1" class="node">
<title>start</title>
</g>
<!-- 76a69e85&#45;8f7b&#45;4226&#45;8819&#45;edc3e1298630 -->
<g id="node3" class="node">
<title>76a69e85&#45;8f7b&#45;4226&#45;8819&#45;edc3e1298630</title>
<ellipse fill="#0ee832" stroke="black" cx="263.5" cy="-26.87" rx="211.35" ry="26.74"/>
<text text-anchor="middle" x="263.5" y="-30.67" font-family="Helvetica,sans-Serif" font-size="14.00">✓ Modify</text>
<text text-anchor="middle" x="263.5" y="-15.67" font-family="Helvetica,sans-Serif" font-size="14.00">src/main/resources/templates/index.html</text>
</g>
<!-- start&#45;&gt;76a69e85&#45;8f7b&#45;4226&#45;8819&#45;edc3e1298630 -->
<g id="edge1" class="edge">
<title>start&#45;&gt;76a69e85&#45;8f7b&#45;4226&#45;8819&#45;edc3e1298630</title>
<path fill="none" stroke="black" d="M1.25,-26.87C4.76,-26.87 20.2,-26.87 41.97,-26.87"/>
<polygon fill="black" stroke="black" points="42.04,-30.37 52.04,-26.87 42.04,-23.37 42.04,-30.37"/>
<text text-anchor="middle" x="26.54" y="-33.67" font-family="Helvetica,sans-Serif" font-size="14.00">Start</text>
</g>
<!-- end -->
<g id="node2" class="node">
<title>end</title>
</g>
<!-- 76a69e85&#45;8f7b&#45;4226&#45;8819&#45;edc3e1298630&#45;&gt;end -->
<g id="edge2" class="edge">
<title>76a69e85&#45;8f7b&#45;4226&#45;8819&#45;edc3e1298630&#45;&gt;end</title>
<path fill="none" stroke="black" d="M475.12,-26.87C495.05,-26.87 511.57,-26.87 521.69,-26.87"/>
<polygon fill="black" stroke="black" points="521.88,-30.37 531.88,-26.87 521.88,-23.37 521.88,-30.37"/>
<text text-anchor="middle" x="503.46" y="-33.67" font-family="Helvetica,sans-Serif" font-size="14.00">Finish</text>
</g>
</g>
</svg>
